Coordinates
version=1
nRows=12
nColumns=24
inDegrees=yes

Units are S.I. units (second, meters, Newtons, ...)
Angles are in degrees.

endheader
time	pelvis_tilt	pelvis_list	pelvis_rotation	pelvis_tx	pelvis_ty	pelvis_tz	hip_flexion_r	hip_adduction_r	hip_rotation_r	knee_angle_r	ankle_angle_r	subtalar_angle_r	mtp_angle_r	hip_flexion_l	hip_adduction_l	hip_rotation_l	knee_angle_l	ankle_angle_l	subtalar_angle_l	mtp_angle_l	lumbar_extension	lumbar_bending	lumbar_rotation
      4.83000000	     -5.01021083	     -3.53031357	      0.86788859	      1.19515293	      0.94190187	     -0.15535465	      2.21016880	      8.40802354	     -0.97128172	    -10.27695992	     16.96820102	     -3.69395243	      0.00000000	     36.53588670	     -3.39067772	     -3.07353747	    -48.42764148	      8.49687672	     -9.16976362	      0.00000000	    -24.21436078	      1.26127814	      4.50561444
      4.84000000	     -5.21710430	     -3.53348952	     -0.27414658	      1.20909932	      0.94062558	     -0.15434844	      0.93245289	      8.40990721	      0.20558238	     -9.31159392	     17.15110659	     -3.49603778	      0.00000000	     36.87230927	     -3.94382153	     -3.81175311	    -44.29762755	      8.61903667	     -8.95219084	      0.00000000	    -24.12222194	      0.71327455	      5.87538898
      4.85000000	     -5.41909609	     -3.63165089	     -1.51778916	      1.22315559	      0.93891841	     -0.15325531	     -0.32159495	      8.45989956	      1.33889905	     -8.43056112	     17.41203658	     -3.21402611	      0.00000000	     37.05353516	     -4.65917547	     -4.56216443	    -40.00221290	      8.59024903	     -8.51774183	      0.00000000	    -24.02809742	      0.23652509	      7.37373250
      4.86000000	     -5.60888456	     -3.89320924	     -2.85722697	      1.23723653	      0.93678516	     -0.15209715	     -1.55401661	      8.62749149	      2.37675718	     -7.65189144	     17.75224009	     -2.78626756	      0.00000000	     37.11829746	     -5.59139491	     -5.30058502	    -35.64907887	      8.37306023	     -7.96435399	      0.00000000	    -23.96277466	     -0.08477789	      9.07079557
      4.87000000	     -5.71014478	     -4.25553934	     -4.23194546	      1.25140598	      0.93440053	     -0.15093525	     -2.88571317	      8.84372523	      3.42819829	     -6.92078970	     18.09045635	     -2.39474828	      0.00000000	     36.98779353	     -6.63009711	     -5.97716728	    -31.28017682	      7.91372850	     -7.41395692	      0.00000000	    -24.02109843	     -0.31282195	     10.85756375
      4.88000000	     -5.81088232	     -4.73627722	     -5.62919825	      1.26570339	      0.93165358	     -0.14985773	     -4.20969968	      9.12238907	      4.38298142	     -6.28252208	     18.48499171	     -1.90802130	      0.00000000	     36.79093624	     -7.77790488	     -6.58671619	    -27.00257618	      7.30236925	     -6.99516302	      0.00000000	    -24.09194493	     -0.40623686	     12.68926848
      4.89000000	     -5.74784531	     -5.28601729	     -6.98674716	      1.28006666	      0.92886297	     -0.14883249	     -5.71561436	      9.40362877	      5.35837746	     -5.69796200	     18.85081671	     -1.51009149	      0.00000000	     36.38479084	     -8.95892643	     -7.05448470	    -22.91594812	      6.54391545	     -6.63681679	      0.00000000	    -24.40733441	     -0.46008685	     14.50195498
      4.90000000	     -5.85024049	     -5.90367264	     -8.32720187	      1.29460300	      0.92555407	     -0.14798169	     -7.01856996	      9.71570567	      6.12902906	     -5.24794039	     19.29825968	     -0.95200688	      0.00000000	     36.17569310	    -10.18747127	     -7.41014074	    -19.16354172	      5.71467976	     -6.67314116	      0.00000000	    -24.51536413	     -0.39279432	     16.32151192
      4.91000000	     -5.85482450	     -6.55343372	     -9.60649922	      1.30925547	      0.92220135	     -0.14725250	     -8.41461922	      9.99971187	      6.88589282	     -4.88804545	     19.73859261	     -0.43291427	      0.00000000	     35.89161943	    -11.41455398	     -7.63548169	    -15.82602239	      4.98548316	     -6.87243936	      0.00000000	    -24.77764737	     -0.30036741	     18.07743553
      4.92000000	     -5.86846767	     -7.22543505	    -10.82794781	      1.32409633	      0.91870205	     -0.14669043	     -9.76744370	     10.26405951	      7.54608576	     -4.65748556	     20.14606930	      0.07085676	      0.00000000	     35.65974422	    -12.62908022	     -7.71393111	    -12.98226198	      4.46682474	     -7.35941870	      0.00000000	    -25.03770339	     -0.15855252	     19.69836920
      4.93000000	     -5.80923707	     -7.82407389	    -11.94171941	      1.33915900	      0.91524260	     -0.14631854	    -11.15798134	     10.39928890	      8.15513593	     -4.51428908	     20.54812328	      0.54601314	      0.00000000	     35.41167881	    -13.71639767	     -7.68069738	    -10.69861220	      4.13702948	     -7.98654121	      0.00000000	    -25.36622271	     -0.09192316	     21.23463397
      4.94000000	     -5.78191759	     -8.37301896	    -12.97846468	      1.35447156	      0.91172442	     -0.14611846	    -12.44213910	     10.46075565	      8.64240357	     -4.52094887	     20.90637031	      1.00563297	      0.00000000	     35.27414628	    -14.71319386	     -7.54275394	     -9.04154629	      4.08858593	     -8.78601562	      0.00000000	    -25.62524796	     -0.04060845	     22.62001754
